<?xml version="1.0" encoding="UTF-8" standalone="no"?><svg xmlns="http://www.w3.org/2000/svg" xmlns:xlink="http://www.w3.org/1999/xlink" contentScriptType="application/ecmascript" contentStyleType="text/css" height="1044px" preserveAspectRatio="none" style="width:1938px;height:1044px;background:#FFFFFF;" version="1.1" viewBox="0 0 1938 1044" width="1938px" zoomAndPan="magnify"><defs><filter height="300%" id="f1jo64vvn72973" width="300%" x="-1" y="-1"><feGaussianBlur result="blurOut" stdDeviation="4.0"/><feColorMatrix in="blurOut" result="blurOut2" type="matrix" values="0 0 0 0 0 0 0 0 0 0 0 0 0 0 0 0 0 0 .4 0"/><feOffset dx="8.0" dy="8.0" in="blurOut2" result="blurOut3"/><feBlend in="SourceGraphic" in2="blurOut3" mode="normal"/></filter></defs><g><text fill="#000000" font-family="sans-serif" font-size="36" lengthAdjust="spacing" textLength="306" x="803.4775" y="31.8516">Jvm Thread Struct</text><!--MD5=[60201b62d30f9bc26ac41292e0ff8a70]
cluster ta--><rect fill="#FFFFFF" filter="url(#f1jo64vvn72973)" height="658" style="stroke:#000000;stroke-width:3.0;" width="516" x="14" y="194.1758"/><line style="stroke:#000000;stroke-width:3.0;" x1="14" x2="530" y1="230.3125" y2="230.3125"/><text fill="#000000" font-family="sans-serif" font-size="28" font-weight="bold" lengthAdjust="spacing" textLength="70" x="237" y="222.9492">线程A</text><!--MD5=[2f1505ac68780ab8bbeba6465da6d6ce]
cluster tb--><rect fill="#FFFFFF" filter="url(#f1jo64vvn72973)" height="658" style="stroke:#000000;stroke-width:3.0;" width="516" x="756" y="194.1758"/><line style="stroke:#000000;stroke-width:3.0;" x1="756" x2="1272" y1="230.3125" y2="230.3125"/><text fill="#000000" font-family="sans-serif" font-size="28" font-weight="bold" lengthAdjust="spacing" textLength="70" x="979" y="222.9492">线程B</text><!--MD5=[302cb9825ab2fbd639714aa748483ea0]
cluster tc--><rect fill="#FFFFFF" filter="url(#f1jo64vvn72973)" height="658" style="stroke:#000000;stroke-width:3.0;" width="516" x="1352" y="194.1758"/><line style="stroke:#000000;stroke-width:3.0;" x1="1352" x2="1868" y1="230.3125" y2="230.3125"/><text fill="#000000" font-family="sans-serif" font-size="28" font-weight="bold" lengthAdjust="spacing" textLength="70" x="1575" y="222.9492">线程C</text><!--MD5=[7b283ce894c5928581d5380ce71c9d62]
entity PC--><rect fill="#AAAAAA" filter="url(#f1jo64vvn72973)" height="96.2734" style="stroke:#000000;stroke-width:3.0;" width="376" x="68" y="276.1758"/><text fill="#000000" font-family="sans-serif" font-size="28" lengthAdjust="spacing" textLength="140" x="88" y="320.9492">程序计数器</text><text fill="#000000" font-family="sans-serif" font-size="28" lengthAdjust="spacing" textLength="336" x="88" y="349.0859">Program Counter Register</text><!--MD5=[6bfb4798dbe1f31937a57cbbc2152693]
entity NativeMethodStack--><rect fill="#AAAAAA" filter="url(#f1jo64vvn72973)" height="96.2734" style="stroke:#000000;stroke-width:3.0;" width="306" x="111" y="708.1758"/><text fill="#000000" font-family="sans-serif" font-size="28" lengthAdjust="spacing" textLength="140" x="131" y="752.9492">本地方法栈</text><text fill="#000000" font-family="sans-serif" font-size="28" lengthAdjust="spacing" textLength="266" x="131" y="781.0859">Native Method Stack</text><!--MD5=[ec069bc136e2ed19ea7849b563e95cbb]
entity Stack--><rect fill="#AAAAAA" filter="url(#f1jo64vvn72973)" height="96.2734" style="stroke:#000000;stroke-width:3.0;" width="404" x="62" y="492.1758"/><text fill="#000000" font-family="sans-serif" font-size="28" lengthAdjust="spacing" textLength="112" x="82" y="536.9492">虚拟机栈</text><text fill="#000000" font-family="sans-serif" font-size="28" lengthAdjust="spacing" textLength="364" x="82" y="565.0859">Java Virtual Machine Stack</text><!--MD5=[28abfabdf405360bb471113e1347e782]
entity PCb--><rect fill="#AAAAAA" filter="url(#f1jo64vvn72973)" height="96.2734" style="stroke:#000000;stroke-width:3.0;" width="376" x="842" y="276.1758"/><text fill="#000000" font-family="sans-serif" font-size="28" lengthAdjust="spacing" textLength="140" x="862" y="320.9492">程序计数器</text><text fill="#000000" font-family="sans-serif" font-size="28" lengthAdjust="spacing" textLength="336" x="862" y="349.0859">Program Counter Register</text><!--MD5=[277f2075930e6df61eb4b4cc9434cd4d]
entity NativeMethodStackb--><rect fill="#AAAAAA" filter="url(#f1jo64vvn72973)" height="96.2734" style="stroke:#000000;stroke-width:3.0;" width="306" x="845" y="708.1758"/><text fill="#000000" font-family="sans-serif" font-size="28" lengthAdjust="spacing" textLength="140" x="865" y="752.9492">本地方法栈</text><text fill="#000000" font-family="sans-serif" font-size="28" lengthAdjust="spacing" textLength="266" x="865" y="781.0859">Native Method Stack</text><!--MD5=[91c4232537965be319ae99681edc48b7]
entity Stackb--><rect fill="#AAAAAA" filter="url(#f1jo64vvn72973)" height="96.2734" style="stroke:#000000;stroke-width:3.0;" width="404" x="820" y="492.1758"/><text fill="#000000" font-family="sans-serif" font-size="28" lengthAdjust="spacing" textLength="112" x="840" y="536.9492">虚拟机栈</text><text fill="#000000" font-family="sans-serif" font-size="28" lengthAdjust="spacing" textLength="364" x="840" y="565.0859">Java Virtual Machine Stack</text><!--MD5=[dc104496449b7936abbd32bdf4ba934c]
entity PCc--><rect fill="#AAAAAA" filter="url(#f1jo64vvn72973)" height="96.2734" style="stroke:#000000;stroke-width:3.0;" width="376" x="1406" y="276.1758"/><text fill="#000000" font-family="sans-serif" font-size="28" lengthAdjust="spacing" textLength="140" x="1426" y="320.9492">程序计数器</text><text fill="#000000" font-family="sans-serif" font-size="28" lengthAdjust="spacing" textLength="336" x="1426" y="349.0859">Program Counter Register</text><!--MD5=[f921be63f75916c036ef9665d5a1b748]
entity NativeMethodStackc--><rect fill="#AAAAAA" filter="url(#f1jo64vvn72973)" height="96.2734" style="stroke:#000000;stroke-width:3.0;" width="306" x="1449" y="708.1758"/><text fill="#000000" font-family="sans-serif" font-size="28" lengthAdjust="spacing" textLength="140" x="1469" y="752.9492">本地方法栈</text><text fill="#000000" font-family="sans-serif" font-size="28" lengthAdjust="spacing" textLength="266" x="1469" y="781.0859">Native Method Stack</text><!--MD5=[578f1047edd8f82997210a13e21ab575]
entity Stackc--><rect fill="#AAAAAA" filter="url(#f1jo64vvn72973)" height="96.2734" style="stroke:#000000;stroke-width:3.0;" width="404" x="1400" y="492.1758"/><text fill="#000000" font-family="sans-serif" font-size="28" lengthAdjust="spacing" textLength="112" x="1420" y="536.9492">虚拟机栈</text><text fill="#000000" font-family="sans-serif" font-size="28" lengthAdjust="spacing" textLength="364" x="1420" y="565.0859">Java Virtual Machine Stack</text><!--MD5=[0afce1850c5ce2063e602e8f207556ff]
entity Heap--><rect fill="#FF0000" filter="url(#f1jo64vvn72973)" height="96.2734" style="stroke:#000000;stroke-width:3.0;" width="96" x="724" y="50.1758"/><text fill="#FFFFFF" font-family="sans-serif" font-size="28" lengthAdjust="spacing" textLength="28" x="744" y="94.9492">堆</text><text fill="#FFFFFF" font-family="sans-serif" font-size="28" lengthAdjust="spacing" textLength="56" x="744" y="123.0859">Heap</text><!--MD5=[fcda691d64e75c9620ca74d45ae46c72]
entity MethodArea--><rect fill="#FF0000" filter="url(#f1jo64vvn72973)" height="96.2734" style="stroke:#000000;stroke-width:3.0;" width="194" x="759" y="924.1758"/><text fill="#FFFFFF" font-family="sans-serif" font-size="28" lengthAdjust="spacing" textLength="84" x="779" y="968.9492">方法区</text><text fill="#FFFFFF" font-family="sans-serif" font-size="28" lengthAdjust="spacing" textLength="154" x="779" y="997.0859">Method Area</text><!--MD5=[e44a6366587ef953fea91ece98c3f83f]
link PC to Stack--><!--MD5=[fd69e99c5e844495a2adf70a45cb4ccf]
link Stack to NativeMethodStack--><!--MD5=[19ec481da2566503e54320774b1870d7]
link PCb to Stackb--><!--MD5=[f2f33f4aa20ca11a9cd8a810d83ea2bc]
link Stackb to NativeMethodStackb--><!--MD5=[8e160dd9a693a64e72442d3b1f1887ce]
link PCc to Stackc--><!--MD5=[912948e1dbe5b7506e250ff812dad6d6]
link Stackc to NativeMethodStackc--><!--MD5=[7cacc5f2f4fdf73bcb254ff6c73643ea]
reverse link Heap to ta--><path d="M715.5,148.7958 C678.15,180.9358 628.79,223.4108 588.2725,258.2758 C568.0137,275.7083 549.9656,291.2383 536.7347,302.6227 C535.0808,304.0457 533.5022,305.404 532.004,306.6931 C531.6294,307.0154 531.2599,307.3333 530.8955,307.6469 C530.7132,307.8037 530.5323,307.9594 530.3526,308.1139 " fill="none" id="Heap-backto-ta" style="stroke:#A80036;stroke-width:2.0;"/><polygon fill="#A80036" points="723.48,141.9358,704.6193,147.6168,715.9015,148.4601,715.0582,159.7423,723.48,141.9358" style="stroke:#A80036;stroke-width:2.0;"/><!--MD5=[8cf1d85a145c29be14b15f0b2c67518b]
reverse link Heap to tb--><path d="M772,157.4158 C772,165.3658 772,173.8011 772,182.4882 C772,184.66 772,186.8476 772,189.0472 C772,190.147 772,191.2498 772,192.3552 C772,192.9079 772,193.4613 772,194.0152 " fill="none" id="Heap-backto-tb" style="stroke:#A80036;stroke-width:2.0;"/><polygon fill="#A80036" points="772,146.7158,764,164.7158,772,156.7158,780,164.7158,772,146.7158" style="stroke:#A80036;stroke-width:2.0;"/><!--MD5=[b4d998056595ee8d9fbdc1f4937b6f2b]
reverse link Heap to tc--><path d="M831.28,101.5158 C1049.78,106.7558 1799.52,127.1758 1836,162.1758 C1842.245,168.1658 1847.2122,175.0514 1851.1195,182.5279 C1853.0731,186.2661 1854.7617,190.1521 1856.2126,194.1477 " fill="none" id="Heap-backto-tc" style="stroke:#A80036;stroke-width:2.0;"/><polygon fill="#A80036" points="820.66,101.2758,838.4719,109.6862,830.6574,101.5049,838.8386,93.6904,820.66,101.2758" style="stroke:#A80036;stroke-width:2.0;"/><!--MD5=[5716c572546993ab6ab7a60e8585710e]
link ta to MethodArea--><path d="M530.0385,399.3578 C530.3356,400.575 530.637,401.8047 530.9427,403.0465 C532.1657,408.0137 533.4585,413.1755 534.8222,418.518 C537.5496,429.2028 540.5606,440.6101 543.8645,452.6277 C550.4722,476.663 558.2513,503.1395 567.275,531.1608 C603.37,643.2458 659.38,780.0458 740,884.1758 C749.22,896.0958 760.52,907.1558 772.4,917.1158 " fill="none" id="ta-to-MethodArea" style="stroke:#A80036;stroke-width:2.0;"/><polygon fill="#A80036" points="780.7,923.8158,771.7358,906.276,772.9249,917.5271,761.6738,918.7162,780.7,923.8158" style="stroke:#A80036;stroke-width:2.0;"/><!--MD5=[5a3297fd77c0f6047f4c661e09dcf48c]
link tb to MethodArea--><path d="M755.9988,429.8196 C755.3576,435.2887 754.7257,440.9256 754.1098,446.7184 C751.6459,469.8892 749.4363,495.552 747.895,522.9308 C741.73,632.4458 746.26,769.4158 788,884.1758 C791.88,894.8558 797.66,905.2358 804.22,914.8758 " fill="none" id="tb-to-MethodArea" style="stroke:#A80036;stroke-width:2.0;"/><polygon fill="#A80036" points="810.46,923.4958,806.4116,904.2186,804.6072,915.3875,793.4383,913.5831,810.46,923.4958" style="stroke:#A80036;stroke-width:2.0;"/><!--MD5=[ba9f4a9436de694b390cfa312c5cdcdb]
link tc to MethodArea--><path d="M1868.2002,371.4903 C1868.3688,372.0059 1868.5381,372.5253 1868.7082,373.0484 C1869.3886,375.141 1870.0811,377.2935 1870.7838,379.504 C1872.1894,383.925 1873.6363,388.5776 1875.1106,393.4452 C1886.905,432.3858 1900.4525,485.0833 1908.62,542.9758 C1924.955,658.7608 1919.77,795.3258 1836,884.1758 C1777.12,946.6158 1206.5,964.0358 964.08,968.6158 " fill="none" id="tc-to-MethodArea" style="stroke:#A80036;stroke-width:2.0;"/><polygon fill="#A80036" points="953.48,968.8158,971.6145,976.5061,963.4785,968.6444,971.3402,960.5084,953.48,968.8158" style="stroke:#A80036;stroke-width:2.0;"/><!--MD5=[5962919c983bac1c4e604039d99eefed]
link NativeMethodStackb to MethodArea--><!--MD5=[2cdc1503e555eb22689ddcb5abd3615e]
@startuml

title "Jvm Thread Struct"

rectangle "堆\nHeap" as Heap #red;text:white

card "线程A" as ta {
    rectangle "程序计数器\nProgram Counter Register" as PC #aaaaaa;text:black
    rectangle "本地方法栈\nNative Method Stack" as NativeMethodStack #aaaaaa;text:black
    rectangle "虚拟机栈\nJava Virtual Machine Stack" as Stack #aaaaaa;text:black
    PC -[hidden]-> Stack
    Stack -[hidden]-> NativeMethodStack
}

card "线程B" as tb {
    rectangle "程序计数器\nProgram Counter Register" as PCb #aaaaaa;text:black
    rectangle "本地方法栈\nNative Method Stack" as NativeMethodStackb #aaaaaa;text:black
    rectangle "虚拟机栈\nJava Virtual Machine Stack" as Stackb #aaaaaa;text:black
    PCb -[hidden]-> Stackb
    Stackb -[hidden]-> NativeMethodStackb
}

card "线程C" as tc {
    rectangle "程序计数器\nProgram Counter Register" as PCc #aaaaaa;text:black
    rectangle "本地方法栈\nNative Method Stack" as NativeMethodStackc #aaaaaa;text:black
    rectangle "虚拟机栈\nJava Virtual Machine Stack" as Stackc #aaaaaa;text:black
    PCc -[hidden]-> Stackc
    Stackc -[hidden]-> NativeMethodStackc
}

rectangle "方法区\nMethod Area" as MethodArea #red;text:white

ta -up-> Heap
tb -up-> Heap
tc -up-> Heap
ta -down-> MethodArea
tb -down-> MethodArea
tc -down-> MethodArea
NativeMethodStackb -[hidden]-> MethodArea

@enduml

PlantUML version 1.2021.7(Sun May 23 20:40:07 CST 2021)
(GPL source distribution)
Java Runtime: OpenJDK Runtime Environment
JVM: OpenJDK 64-Bit Server VM
Default Encoding: UTF-8
Language: zh
Country: CN
--></g></svg>