<?xml version="1.0" encoding="UTF-8" standalone="no"?><svg xmlns="http://www.w3.org/2000/svg" xmlns:xlink="http://www.w3.org/1999/xlink" contentScriptType="application/ecmascript" contentStyleType="text/css" height="688px" preserveAspectRatio="none" style="width:2384px;height:688px;background:#FFFFFF;" version="1.1" viewBox="0 0 2384 688" width="2384px" zoomAndPan="magnify"><defs><filter height="300%" id="f1fvuc5rjombal" width="300%" x="-1" y="-1"><feGaussianBlur result="blurOut" stdDeviation="4.0"/><feColorMatrix in="blurOut" result="blurOut2" type="matrix" values="0 0 0 0 0 0 0 0 0 0 0 0 0 0 0 0 0 0 .4 0"/><feOffset dx="8.0" dy="8.0" in="blurOut2" result="blurOut3"/><feBlend in="SourceGraphic" in2="blurOut3" mode="normal"/></filter></defs><g><text fill="#000000" font-family="sans-serif" font-size="36" lengthAdjust="spacing" textLength="432" x="963.5" y="31.8516">HotSpot JVM Architecture</text><!--MD5=[de5bc73ef19f28a9a0704dbc400102e5]
cluster RuntimeDataArea--><polygon fill="#FFFFFF" filter="url(#f1fvuc5rjombal)" points="32,214.1758,52,194.1758,1184,194.1758,1184,654.1758,1164,674.1758,32,674.1758,32,214.1758" style="stroke:#000000;stroke-width:3.0;"/><line style="stroke:#000000;stroke-width:3.0;" x1="1164" x2="1184" y1="214.1758" y2="194.1758"/><line style="stroke:#000000;stroke-width:3.0;" x1="32" x2="1164" y1="214.1758" y2="214.1758"/><line style="stroke:#000000;stroke-width:3.0;" x1="1164" x2="1164" y1="214.1758" y2="674.1758"/><text fill="#000000" font-family="sans-serif" font-size="28" font-weight="bold" lengthAdjust="spacing" textLength="168" x="516" y="244.9492">运行时数据区</text><text fill="#000000" font-family="sans-serif" font-size="28" font-weight="bold" lengthAdjust="spacing" textLength="238" x="481" y="273.0859">Runtime Data Area</text><!--MD5=[fcda691d64e75c9620ca74d45ae46c72]
entity MethodArea--><rect fill="#FF0000" filter="url(#f1fvuc5rjombal)" height="96.2734" style="stroke:#000000;stroke-width:3.0;" width="194" x="79" y="314.1758"/><text fill="#FFFFFF" font-family="sans-serif" font-size="28" lengthAdjust="spacing" textLength="84" x="99" y="358.9492">方法区</text><text fill="#FFFFFF" font-family="sans-serif" font-size="28" lengthAdjust="spacing" textLength="154" x="99" y="387.0859">Method Area</text><!--MD5=[7b283ce894c5928581d5380ce71c9d62]
entity PC--><rect fill="#AAAAAA" filter="url(#f1fvuc5rjombal)" height="96.2734" style="stroke:#000000;stroke-width:3.0;" width="376" x="344" y="314.1758"/><text fill="#000000" font-family="sans-serif" font-size="28" lengthAdjust="spacing" textLength="140" x="364" y="358.9492">程序计数器</text><text fill="#000000" font-family="sans-serif" font-size="28" lengthAdjust="spacing" textLength="336" x="364" y="387.0859">Program Counter Register</text><!--MD5=[6bfb4798dbe1f31937a57cbbc2152693]
entity NativeMethodStack--><rect fill="#AAAAAA" filter="url(#f1fvuc5rjombal)" height="96.2734" style="stroke:#000000;stroke-width:3.0;" width="306" x="791" y="314.1758"/><text fill="#000000" font-family="sans-serif" font-size="28" lengthAdjust="spacing" textLength="140" x="811" y="358.9492">本地方法栈</text><text fill="#000000" font-family="sans-serif" font-size="28" lengthAdjust="spacing" textLength="266" x="811" y="387.0859">Native Method Stack</text><!--MD5=[0afce1850c5ce2063e602e8f207556ff]
entity Heap--><rect fill="#FF0000" filter="url(#f1fvuc5rjombal)" height="96.2734" style="stroke:#000000;stroke-width:3.0;" width="96" x="128" y="530.1758"/><text fill="#FFFFFF" font-family="sans-serif" font-size="28" lengthAdjust="spacing" textLength="28" x="148" y="574.9492">堆</text><text fill="#FFFFFF" font-family="sans-serif" font-size="28" lengthAdjust="spacing" textLength="56" x="148" y="603.0859">Heap</text><!--MD5=[ec069bc136e2ed19ea7849b563e95cbb]
entity Stack--><rect fill="#AAAAAA" filter="url(#f1fvuc5rjombal)" height="96.2734" style="stroke:#000000;stroke-width:3.0;" width="404" x="294" y="530.1758"/><text fill="#000000" font-family="sans-serif" font-size="28" lengthAdjust="spacing" textLength="112" x="314" y="574.9492">虚拟机栈</text><text fill="#000000" font-family="sans-serif" font-size="28" lengthAdjust="spacing" textLength="364" x="314" y="603.0859">Java Virtual Machine Stack</text><!--MD5=[c21f88ec4237723273223bb3073a4990]
entity ClassFile--><rect fill="#FEFECE" filter="url(#f1fvuc5rjombal)" height="60.1367" style="stroke:#A80036;stroke-width:3.0;" width="172" x="752" y="72.1758"/><rect fill="#FEFECE" height="60.1367" style="stroke:#A80036;stroke-width:3.0;" width="172" x="744" y="64.1758"/><text fill="#000000" font-family="sans-serif" font-size="28" lengthAdjust="spacing" textLength="140" x="760" y="104.9492">Class File</text><!--MD5=[50e415dca56d220307a8bec6777e1ea9]
entity ClassLoaderSubsystem--><rect fill="#FEFECE" filter="url(#f1fvuc5rjombal)" height="96.2734" style="stroke:#000000;stroke-width:3.0;" width="348" x="994" y="50.1758"/><text fill="#000000" font-family="sans-serif" font-size="28" lengthAdjust="spacing" textLength="168" x="1014" y="94.9492">类加载子系统</text><text fill="#000000" font-family="sans-serif" font-size="28" lengthAdjust="spacing" textLength="308" x="1014" y="123.0859">Class Loader Subsystem</text><!--MD5=[3b849d91f0d117833182b41d5ec209cc]
entity ExecutionEngine--><rect fill="#FF00FF" filter="url(#f1fvuc5rjombal)" height="96.2734" style="stroke:#0000FF;stroke-width:2.0;stroke-dasharray:1.0,3.0;" width="264" x="1232" y="530.1758"/><text fill="#FFFFFF" font-family="sans-serif" font-size="28" lengthAdjust="spacing" textLength="112" x="1252" y="574.9492">执行引擎</text><text fill="#FFFFFF" font-family="sans-serif" font-size="28" lengthAdjust="spacing" textLength="224" x="1252" y="603.0859">Execution Engine</text><!--MD5=[5def795bb978f7220e517a3cadba697f]
entity NativeMethodInterface--><rect filter="url(#f1fvuc5rjombal)" height="96.2734" style="stroke:#000000;stroke-width:2.0;fill:none;stroke-dasharray:1.0,3.0;" width="362" x="1567" y="530.1758"/><text fill="#000000" font-family="sans-serif" font-size="28" lengthAdjust="spacing" textLength="168" x="1587" y="574.9492">本地方法接口</text><text fill="#000000" font-family="sans-serif" font-size="28" lengthAdjust="spacing" textLength="322" x="1587" y="603.0859">Native Method Interface</text><!--MD5=[c4d5701bbb1d7b3ffaf4b39324ff0f8b]
entity NativeMethodLibraries--><rect filter="url(#f1fvuc5rjombal)" height="96.2734" style="stroke:#00000000;stroke-width:2.0;fill:none;stroke-dasharray:1.0,3.0;" width="362" x="1999" y="530.1758"/><text fill="#000000" font-family="sans-serif" font-size="28" lengthAdjust="spacing" textLength="140" x="2019" y="574.9492">本地方法库</text><text fill="#000000" font-family="sans-serif" font-size="28" lengthAdjust="spacing" textLength="322" x="2019" y="603.0859">Native Method Libraries</text><!--MD5=[5c09a9af04b252f67ef863faa61c3cfb]
link ClassFile to ClassLoaderSubsystem--><path d="M924.02,98.1758 C943.78,98.1758 963.52,98.1758 983.26,98.1758 " fill="none" id="ClassFile-to-ClassLoaderSubsystem" style="stroke:#666666;stroke-width:4.0;"/><polygon fill="#666666" points="993.6,98.1758,975.6,90.1758,983.6,98.1758,975.6,106.1758,993.6,98.1758" style="stroke:#666666;stroke-width:4.0;"/><!--MD5=[3660258fb10cff811df01cd839838057]
link ClassLoaderSubsystem to RuntimeDataArea--><path d="M1147.92,146.6558 C1146.5,155.9308 1145.3591,166.1895 1144.4972,177.0454 C1144.0663,182.4733 1143.7051,188.0504 1143.4137,193.7285 " fill="none" id="ClassLoaderSubsystem-to-RuntimeDataArea" style="stroke:#666666;stroke-width:4.0;"/><polygon fill="#666666" points="1143.4137,193.7285,1152.3257,176.1622,1143.9262,183.7417,1136.3468,175.3422,1143.4137,193.7285" style="stroke:#666666;stroke-width:4.0;"/><!--MD5=[84431137d0f8f64d0fe51e97e981646c]
reverse link ClassLoaderSubsystem to RuntimeDataArea--><path d="M1190.7,156.5558 C1195.68,194.4758 1196.33,244.8608 1192.65,286.0233 C1191.73,296.3139 1190.5394,306.0281 1189.0781,314.8271 C1188.3475,319.2265 1187.5492,323.3972 1186.6833,327.2967 C1186.2503,329.2464 1185.8004,331.1284 1185.3336,332.9372 C1185.1002,333.8416 1184.8626,334.7278 1184.6208,335.595 C1184.4998,336.0286 1184.3778,336.4575 1184.2548,336.8816 C1184.1933,337.0936 1184.1315,337.3044 1184.0694,337.514 " fill="none" id="ClassLoaderSubsystem-backto-RuntimeDataArea" style="stroke:#666666;stroke-width:4.0;"/><polygon fill="#666666" points="1189.26,146.6558,1183.9089,165.6127,1190.6862,156.5536,1199.7454,163.3308,1189.26,146.6558" style="stroke:#666666;stroke-width:4.0;"/><!--MD5=[1bd9d2c8acf494a7de678873bc352b6c]
link RuntimeDataArea to ExecutionEngine--><path d="M1184.3863,403.9946 C1185.6993,405.7541 1187.0643,407.5541 1188.478,409.391 C1191.3052,413.0646 1194.3269,416.8855 1197.515,420.8233 C1223.02,452.3258 1259.18,491.3158 1291.72,522.3558 " fill="none" id="RuntimeDataArea-to-ExecutionEngine" style="stroke:#666666;stroke-width:4.0;"/><polygon fill="#666666" points="1299.58,529.7758,1291.9553,511.6136,1292.298,522.9221,1280.9895,523.2648,1299.58,529.7758" style="stroke:#666666;stroke-width:4.0;"/><!--MD5=[09d1c4d6c321bdc5986d72609e58a505]
reverse link RuntimeDataArea to ExecutionEngine--><path d="M1184.1503,370.6755 C1184.8535,371.1043 1185.5705,371.5526 1186.3008,372.0199 C1187.7615,372.9544 1189.2754,373.9647 1190.8388,375.0465 C1193.9655,377.21 1197.2897,379.6597 1200.78,382.3614 C1214.7413,393.1683 1231.36,408.0083 1248.625,424.7058 C1283.155,458.1008 1320.27,498.9258 1343.88,529.7758 " fill="none" id="RuntimeDataArea-backto-ExecutionEngine" style="stroke:#666666;stroke-width:4.0;"/><polygon fill="#666666" points="1184.1503,370.6755,1195.3526,386.8776,1192.6879,375.8822,1203.6833,373.2174,1184.1503,370.6755" style="stroke:#666666;stroke-width:4.0;"/><!--MD5=[7c9f7dddcfd2d5df9a9c8070e148508d]
link RuntimeDataArea to NativeMethodInterface--><path d="M1184.4683,374.5086 C1184.7547,374.6371 1185.0442,374.7667 1185.3369,374.8974 C1185.9222,375.1587 1186.5201,375.4242 1187.1303,375.6939 C1192.0121,377.8517 1197.6848,380.2768 1204.0631,382.938 C1229.5763,393.5827 1266.3775,408.0045 1308.995,424.2033 C1394.23,456.6008 1502.73,496.1058 1590.72,526.7158 " fill="none" id="RuntimeDataArea-to-NativeMethodInterface" style="stroke:#666666;stroke-width:4.0;"/><polygon fill="#666666" points="1600.62,530.1558,1586.2425,516.6915,1591.1739,526.8739,1580.9915,531.8053,1600.62,530.1558" style="stroke:#666666;stroke-width:4.0;"/><!--MD5=[43faaf988a44ab5d39a804b0cea91b74]
reverse link RuntimeDataArea to NativeMethodInterface--><path d="M1184.5989,367.5195 C1185.1988,367.6781 1185.8123,367.842 1186.439,368.0112 C1187.6924,368.3495 1188.9989,368.7087 1190.3572,369.0884 C1201.2231,372.1261 1215.3963,376.4714 1232.1175,381.847 C1265.56,392.5983 1309.195,407.4708 1356.95,424.2458 C1452.46,457.7958 1564.45,498.9558 1644.34,529.9758 " fill="none" id="RuntimeDataArea-backto-NativeMethodInterface" style="stroke:#666666;stroke-width:4.0;"/><polygon fill="#666666" points="1184.5989,367.5195,1199.9565,379.8541,1194.2668,370.0752,1204.0457,364.3855,1184.5989,367.5195" style="stroke:#666666;stroke-width:4.0;"/><!--MD5=[1861d1150d0a77f91433c654a1fd7832]
link ExecutionEngine to NativeMethodInterface--><path d="M1496.76,610.7558 C1516.52,613.0358 1536.3,614.1758 1556.08,614.1758 " fill="none" id="ExecutionEngine-to-NativeMethodInterface" style="stroke:#666666;stroke-width:4.0;"/><polygon fill="#666666" points="1566.44,614.0758,1548.3721,606.2304,1556.4404,614.1615,1548.5092,622.2298,1566.44,614.0758" style="stroke:#666666;stroke-width:4.0;"/><!--MD5=[2eae8f46934235e07006a617d3f1dd85]
reverse link ExecutionEngine to NativeMethodInterface--><path d="M1507.1,544.5158 C1526.88,542.6158 1546.66,541.8758 1566.44,542.2758 " fill="none" id="ExecutionEngine-backto-NativeMethodInterface" style="stroke:#666666;stroke-width:4.0;"/><polygon fill="#666666" points="1496.76,545.5958,1515.5049,551.6479,1506.704,544.5385,1513.8133,535.7376,1496.76,545.5958" style="stroke:#666666;stroke-width:4.0;"/><!--MD5=[74bc8928ea21cc8561bbe9f44d4ee4ee]
reverse link NativeMethodLibraries to NativeMethodInterface--><path d="M1988.6,613.7158 C1968.86,614.4558 1949.14,614.2958 1929.4,613.2558 " fill="none" id="NativeMethodLibraries-backto-NativeMethodInterface" style="stroke:#666666;stroke-width:4.0;"/><polygon fill="#666666" points="1998.9,613.2358,1980.5534,606.0661,1988.9104,613.6924,1981.2841,622.0494,1998.9,613.2358" style="stroke:#666666;stroke-width:4.0;"/><!--MD5=[b3e8e0726811a14a77211824a498eb89]
reverse link NativeMethodInterface to NativeMethodLibraries--><path d="M1939.72,542.6358 C1959.46,541.8958 1979.18,542.0558 1998.9,543.1158 " fill="none" id="NativeMethodInterface-backto-NativeMethodLibraries" style="stroke:#666666;stroke-width:4.0;"/><polygon fill="#666666" points="1929.4,543.0958,1947.7475,550.263,1939.3895,542.6378,1947.0147,534.2798,1929.4,543.0958" style="stroke:#666666;stroke-width:4.0;"/><!--MD5=[d7ba437dbe2c7e427ada6ac179c3692d]
link MethodArea to PC--><!--MD5=[d12618db2da828d83f1b753f6c708875]
link PC to NativeMethodStack--><!--MD5=[44f895cba1c603fc412d27d89e580567]
link MethodArea to Heap--><!--MD5=[454b9b102e9d540337dbb13fa20a9ec8]
link Heap to Stack--><!--MD5=[fc5878f122da947b7121e72a3bdda696]
@startuml

title HotSpot JVM Architecture

collections "Class File" as ClassFile

rectangle "类加载子系统\nClass Loader Subsystem" as ClassLoaderSubsystem

ClassFile -right-> ClassLoaderSubsystem #666666;line.bold

node "运行时数据区\nRuntime Data Area" as RuntimeDataArea {
    rectangle "方法区\nMethod Area" as MethodArea #red;text:white
    rectangle "程序计数器\nProgram Counter Register" as PC #aaaaaa;text:black
    rectangle "本地方法栈\nNative Method Stack" as NativeMethodStack #aaaaaa;text:black
    rectangle "堆\nHeap" as Heap #red;text:white
    rectangle "虚拟机栈\nJava Virtual Machine Stack" as Stack #aaaaaa;text:black
}

ClassLoaderSubsystem -down-> RuntimeDataArea #666666;line.bold
RuntimeDataArea -up-> ClassLoaderSubsystem #666666;line.bold

rectangle "执行引擎\nExecution Engine" as ExecutionEngine #magenta;line:blue;line.dotted;text:white

RuntimeDataArea -down-> ExecutionEngine #666666;line.bold
ExecutionEngine -up-> RuntimeDataArea #666666;line.bold

rectangle "本地方法接口\nNative Method Interface" as NativeMethodInterface #00000000;line:black;line.dotted;text:black

RuntimeDataArea -down-> NativeMethodInterface #666666;line.bold
NativeMethodInterface -up-> RuntimeDataArea #666666;line.bold

ExecutionEngine -right-> NativeMethodInterface #666666;line.bold
NativeMethodInterface -left-> ExecutionEngine #666666;line.bold

rectangle "本地方法库\nNative Method Libraries" as NativeMethodLibraries #00000000;line:00000000;line.dotted;text:black

NativeMethodInterface -left-> NativeMethodLibraries #666666;line.bold
NativeMethodLibraries -left-> NativeMethodInterface #666666;line.bold

@enduml

PlantUML version 1.2021.7(Sun May 23 20:40:07 CST 2021)
(GPL source distribution)
Java Runtime: OpenJDK Runtime Environment
JVM: OpenJDK 64-Bit Server VM
Default Encoding: UTF-8
Language: zh
Country: CN
--></g></svg>