<?xml version="1.0" encoding="UTF-8" standalone="no"?><svg xmlns="http://www.w3.org/2000/svg" xmlns:xlink="http://www.w3.org/1999/xlink" contentScriptType="application/ecmascript" contentStyleType="text/css" height="1078px" preserveAspectRatio="none" style="width:778px;height:1078px;background:#FFFFFF;" version="1.1" viewBox="0 0 778 1078" width="778px" zoomAndPan="magnify"><defs><filter height="300%" id="f10wreused5gb5" width="300%" x="-1" y="-1"><feGaussianBlur result="blurOut" stdDeviation="4.0"/><feColorMatrix in="blurOut" result="blurOut2" type="matrix" values="0 0 0 0 0 0 0 0 0 0 0 0 0 0 0 0 0 0 .4 0"/><feOffset dx="8.0" dy="8.0" in="blurOut2" result="blurOut3"/><feBlend in="SourceGraphic" in2="blurOut3" mode="normal"/></filter></defs><g><g id="CustomClassLoader"><rect fill="#FEFECE" filter="url(#f10wreused5gb5)" height="100" rx="25" ry="25" style="stroke:#008000;stroke-width:2.0;stroke-dasharray:1.0,3.0;" width="278" x="35" y="764"/><line style="stroke:#008000;stroke-width:2.0;stroke-dasharray:1.0,3.0;" x1="35" x2="313" y1="812.1367" y2="812.1367"/><text fill="#000000" font-family="sans-serif" font-size="28" lengthAdjust="spacing" textLength="238" x="55" y="798.7734">CustomClassLoader</text><text fill="#000000" font-family="sans-serif" font-size="24" lengthAdjust="spacing" textLength="168" x="45" y="843.3711">自定义类加载器</text></g><g id="AppClassLoader"><rect fill="#FEFECE" filter="url(#f10wreused5gb5)" height="100" rx="25" ry="25" style="stroke:#008000;stroke-width:2.0;stroke-dasharray:1.0,3.0;" width="236" x="56" y="514"/><line style="stroke:#008000;stroke-width:2.0;stroke-dasharray:1.0,3.0;" x1="56" x2="292" y1="562.1367" y2="562.1367"/><text fill="#000000" font-family="sans-serif" font-size="28" lengthAdjust="spacing" textLength="196" x="76" y="548.7734">AppClassLoader</text><text fill="#000000" font-family="sans-serif" font-size="24" lengthAdjust="spacing" textLength="144" x="66" y="593.3711">系统类加载器</text></g><g id="PlatformClassLoader"><rect fill="#FEFECE" filter="url(#f10wreused5gb5)" height="100" rx="25" ry="25" style="stroke:#008000;stroke-width:2.0;stroke-dasharray:1.0,3.0;" width="306" x="21" y="264"/><line style="stroke:#008000;stroke-width:2.0;stroke-dasharray:1.0,3.0;" x1="21" x2="327" y1="312.1367" y2="312.1367"/><text fill="#000000" font-family="sans-serif" font-size="28" lengthAdjust="spacing" textLength="266" x="41" y="298.7734">PlatformClassLoader</text><text fill="#000000" font-family="sans-serif" font-size="24" lengthAdjust="spacing" textLength="144" x="31" y="343.3711">平台类加载器</text></g><g id="BootStrapClassLoader"><rect fill="#FEFECE" filter="url(#f10wreused5gb5)" height="100" rx="25" ry="25" style="stroke:#008000;stroke-width:2.0;stroke-dasharray:1.0,3.0;" width="320" x="14" y="14"/><line style="stroke:#008000;stroke-width:2.0;stroke-dasharray:1.0,3.0;" x1="14" x2="334" y1="62.1367" y2="62.1367"/><text fill="#000000" font-family="sans-serif" font-size="28" lengthAdjust="spacing" textLength="280" x="34" y="48.7734">BootStrapClassLoader</text><text fill="#000000" font-family="sans-serif" font-size="24" lengthAdjust="spacing" textLength="144" x="24" y="93.3711">引导类加载器</text></g><path d="M404,41 L404,56 L334.18,64 L404,72 L404,87.127 A0,0 0 0 0 404,87.127 L760,87.127 A0,0 0 0 0 760,87.127 L760,61 L740,41 L404,41 A0,0 0 0 0 404,41 " fill="#FBFB77" filter="url(#f10wreused5gb5)" style="stroke:#A80036;stroke-width:2.0;"/><path d="M740,41 L740,61 L760,61 L740,41 " fill="#FBFB77" style="stroke:#A80036;stroke-width:2.0;"/><text fill="#000000" font-family="sans-serif" font-size="26" lengthAdjust="spacing" textLength="314" x="416" y="74.0039">"父类加载失败由子类处理"</text><path d="M362,541 L362,556 L292.66,564 L362,572 L362,587.127 A0,0 0 0 0 362,587.127 L718,587.127 A0,0 0 0 0 718,587.127 L718,561 L698,541 L362,541 A0,0 0 0 0 362,541 " fill="#FBFB77" filter="url(#f10wreused5gb5)" style="stroke:#A80036;stroke-width:2.0;"/><path d="M698,541 L698,561 L718,561 L698,541 " fill="#FBFB77" style="stroke:#A80036;stroke-width:2.0;"/><text fill="#000000" font-family="sans-serif" font-size="26" lengthAdjust="spacing" textLength="314" x="374" y="574.0039">"父类加载失败由子类处理"</text><path d="M398,291 L398,306 L327.1,314 L398,322 L398,337.127 A0,0 0 0 0 398,337.127 L754,337.127 A0,0 0 0 0 754,337.127 L754,311 L734,291 L398,291 A0,0 0 0 0 398,291 " fill="#FBFB77" filter="url(#f10wreused5gb5)" style="stroke:#A80036;stroke-width:2.0;"/><path d="M734,291 L734,311 L754,311 L734,291 " fill="#FBFB77" style="stroke:#A80036;stroke-width:2.0;"/><text fill="#000000" font-family="sans-serif" font-size="26" lengthAdjust="spacing" textLength="314" x="410" y="324.0039">"父类加载失败由子类处理"</text><path d="M384,791 L384,806 L313.44,814 L384,822 L384,837.127 A0,0 0 0 0 384,837.127 L740,837.127 A0,0 0 0 0 740,837.127 L740,811 L720,791 L384,791 A0,0 0 0 0 384,791 " fill="#FBFB77" filter="url(#f10wreused5gb5)" style="stroke:#A80036;stroke-width:2.0;"/><path d="M720,791 L720,811 L740,811 L720,791 " fill="#FBFB77" style="stroke:#A80036;stroke-width:2.0;"/><text fill="#000000" font-family="sans-serif" font-size="26" lengthAdjust="spacing" textLength="314" x="396" y="824.0039">"父类加载失败由子类处理"</text><ellipse cx="174" cy="1034" fill="#008000" filter="url(#f10wreused5gb5)" rx="20" ry="20" style="stroke:none;stroke-width:2.0;"/><!--MD5=[373cd4050b84fe6fb6173cbef09a68b3]
reverse link CustomClassLoader to *start--><path d="M174,874.76 C174,921.32 174,983.42 174,1013.76 " fill="none" id="CustomClassLoader-backto-*start" style="stroke:#A80036;stroke-width:2.0;"/><polygon fill="#A80036" points="174,864.48,166,882.48,174,874.48,182,882.48,174,864.48" style="stroke:#A80036;stroke-width:2.0;"/><text fill="#000000" font-family="sans-serif" font-size="26" lengthAdjust="spacing" textLength="78" x="176" y="949.0039">加载类</text><!--MD5=[12c1fa144d97cfaa15fa555554a7eadf]
reverse link AppClassLoader to CustomClassLoader--><path d="M174,624.46 C174,666.78 174,723.36 174,763.26 " fill="none" id="AppClassLoader-backto-CustomClassLoader" style="stroke:#A80036;stroke-width:2.0;"/><polygon fill="#A80036" points="174,614.02,166,632.02,174,624.02,182,632.02,174,614.02" style="stroke:#A80036;stroke-width:2.0;"/><text fill="#000000" font-family="sans-serif" font-size="26" lengthAdjust="spacing" textLength="104" x="176" y="699.0039">向上委托</text><!--MD5=[6784fb925fa612418695c3f20e1aab5f]
reverse link PlatformClassLoader to AppClassLoader--><path d="M174,374.46 C174,416.78 174,473.36 174,513.26 " fill="none" id="PlatformClassLoader-backto-AppClassLoader" style="stroke:#A80036;stroke-width:2.0;"/><polygon fill="#A80036" points="174,364.02,166,382.02,174,374.02,182,382.02,174,364.02" style="stroke:#A80036;stroke-width:2.0;"/><text fill="#000000" font-family="sans-serif" font-size="26" lengthAdjust="spacing" textLength="104" x="176" y="449.0039">向上委托</text><!--MD5=[191c2872837b8770e02ff4a00b9f3b00]
reverse link BootStrapClassLoader to PlatformClassLoader--><path d="M174,124.46 C174,166.78 174,223.36 174,263.26 " fill="none" id="BootStrapClassLoader-backto-PlatformClassLoader" style="stroke:#A80036;stroke-width:2.0;"/><polygon fill="#A80036" points="174,114.02,166,132.02,174,124.02,182,132.02,174,114.02" style="stroke:#A80036;stroke-width:2.0;"/><text fill="#000000" font-family="sans-serif" font-size="26" lengthAdjust="spacing" textLength="104" x="176" y="199.0039">向上委托</text><!--MD5=[b8d5603cc061a907cda979df0fc312a8]
@startuml

skinparam state {
  StartColor Green
}

state CustomClassLoader ##[dotted]green : 自定义类加载器 
state AppClassLoader ##[dotted]green : 系统类加载器 
state PlatformClassLoader ##[dotted]green : 平台类加载器 
state BootStrapClassLoader ##[dotted]green : 引导类加载器
note right of BootStrapClassLoader : "父类加载失败由子类处理" 
note right of AppClassLoader : "父类加载失败由子类处理" 
note right of PlatformClassLoader : "父类加载失败由子类处理" 
note right of CustomClassLoader : "父类加载失败由子类处理" 

[*] -up-> CustomClassLoader : 加载类
CustomClassLoader -up->  AppClassLoader : 向上委托
AppClassLoader -up->  PlatformClassLoader : 向上委托
PlatformClassLoader -up->  BootStrapClassLoader : 向上委托

@enduml

PlantUML version 1.2021.7(Sun May 23 20:40:07 CST 2021)
(GPL source distribution)
Java Runtime: OpenJDK Runtime Environment
JVM: OpenJDK 64-Bit Server VM
Default Encoding: UTF-8
Language: zh
Country: CN
--></g></svg>