<?xml version="1.0" encoding="UTF-8" standalone="no"?><svg xmlns="http://www.w3.org/2000/svg" xmlns:xlink="http://www.w3.org/1999/xlink" contentScriptType="application/ecmascript" contentStyleType="text/css" height="236px" preserveAspectRatio="none" style="width:1390px;height:236px;background:#FFFFFF;" version="1.1" viewBox="0 0 1390 236" width="1390px" zoomAndPan="magnify"><defs><filter height="300%" id="f29tnczxbb43k" width="300%" x="-1" y="-1"><feGaussianBlur result="blurOut" stdDeviation="4.0"/><feColorMatrix in="blurOut" result="blurOut2" type="matrix" values="0 0 0 0 0 0 0 0 0 0 0 0 0 0 0 0 0 0 .4 0"/><feOffset dx="8.0" dy="8.0" in="blurOut2" result="blurOut3"/><feBlend in="SourceGraphic" in2="blurOut3" mode="normal"/></filter></defs><g><!--MD5=[0db8396f924ac6010b74642bdfce86ba]
cluster Linking链接--><rect fill="#F0F8FF" filter="url(#f29tnczxbb43k)" height="198" rx="25" ry="25" style="stroke:#0000FF;stroke-width:2.0;stroke-dasharray:1.0,3.0;" width="788" x="300" y="14"/><rect fill="#FFFFFF" height="141.8633" rx="25" ry="25" style="stroke:#FFFFFF;stroke-width:2.0;" width="780" x="304" y="66.1367"/><line style="stroke:#0000FF;stroke-width:2.0;stroke-dasharray:1.0,3.0;" x1="300" x2="1088" y1="62.1367" y2="62.1367"/><text fill="#000000" font-family="sans-serif" font-size="28" lengthAdjust="spacing" textLength="154" x="617" y="46.7734">Linking链接</text><g id="Linking链接.Verification"><rect fill="#F0F8FF" filter="url(#f29tnczxbb43k)" height="100" rx="25" ry="25" style="stroke:#0000FF;stroke-width:2.0;stroke-dasharray:1.0,3.0;" width="208" x="332" y="80"/><line style="stroke:#0000FF;stroke-width:2.0;stroke-dasharray:1.0,3.0;" x1="332" x2="540" y1="128.1367" y2="128.1367"/><text fill="#000000" font-family="sans-serif" font-size="28" lengthAdjust="spacing" textLength="168" x="352" y="114.7734">Verification</text><text fill="#000000" font-family="sans-serif" font-size="24" lengthAdjust="spacing" textLength="48" x="342" y="159.3711">验证</text></g><g id="Linking链接.Preparation"><rect fill="#F0F8FF" filter="url(#f29tnczxbb43k)" height="100" rx="25" ry="25" style="stroke:#0000FF;stroke-width:2.0;stroke-dasharray:1.0,3.0;" width="194" x="611" y="80"/><line style="stroke:#0000FF;stroke-width:2.0;stroke-dasharray:1.0,3.0;" x1="611" x2="805" y1="128.1367" y2="128.1367"/><text fill="#000000" font-family="sans-serif" font-size="28" lengthAdjust="spacing" textLength="154" x="631" y="114.7734">Preparation</text><text fill="#000000" font-family="sans-serif" font-size="24" lengthAdjust="spacing" textLength="48" x="621" y="159.3711">准备</text></g><g id="Linking链接.Resolution"><rect fill="#F0F8FF" filter="url(#f29tnczxbb43k)" height="100" rx="25" ry="25" style="stroke:#0000FF;stroke-width:2.0;stroke-dasharray:1.0,3.0;" width="180" x="876" y="80"/><line style="stroke:#0000FF;stroke-width:2.0;stroke-dasharray:1.0,3.0;" x1="876" x2="1056" y1="128.1367" y2="128.1367"/><text fill="#000000" font-family="sans-serif" font-size="28" lengthAdjust="spacing" textLength="140" x="896" y="114.7734">Resolution</text><text fill="#000000" font-family="sans-serif" font-size="24" lengthAdjust="spacing" textLength="48" x="886" y="159.3711">解析</text></g><g id="Loading"><rect fill="#FEFECE" filter="url(#f29tnczxbb43k)" height="100" rx="25" ry="25" style="stroke:#008000;stroke-width:2.0;stroke-dasharray:1.0,3.0;" width="138" x="123" y="80"/><line style="stroke:#008000;stroke-width:2.0;stroke-dasharray:1.0,3.0;" x1="123" x2="261" y1="128.1367" y2="128.1367"/><text fill="#000000" font-family="sans-serif" font-size="28" lengthAdjust="spacing" textLength="98" x="143" y="114.7734">Loading</text><text fill="#000000" font-family="sans-serif" font-size="24" lengthAdjust="spacing" textLength="48" x="133" y="159.3711">加载</text></g><g id="Initialization"><rect fill="#FEFECE" filter="url(#f29tnczxbb43k)" height="100" rx="25" ry="25" style="stroke:#008000;stroke-width:2.0;stroke-dasharray:1.0,3.0;" width="236" x="1126" y="80"/><line style="stroke:#008000;stroke-width:2.0;stroke-dasharray:1.0,3.0;" x1="1126" x2="1362" y1="128.1367" y2="128.1367"/><text fill="#000000" font-family="sans-serif" font-size="28" lengthAdjust="spacing" textLength="196" x="1146" y="114.7734">Initialization</text><text fill="#000000" font-family="sans-serif" font-size="24" lengthAdjust="spacing" textLength="72" x="1136" y="159.3711">初始化</text></g><ellipse cx="32" cy="130" fill="#008000" filter="url(#f29tnczxbb43k)" rx="20" ry="20" style="stroke:none;stroke-width:2.0;"/><!--MD5=[cec644a525e3f8fb2154be83c0df350f]
link *start to Loading--><path d="M52,130 C72.02,130 92.06,130 112.08,130 " fill="none" id="*start-to-Loading" style="stroke:#A80036;stroke-width:2.0;"/><polygon fill="#A80036" points="122.54,130,104.54,122,112.54,130,104.54,138,122.54,130" style="stroke:#A80036;stroke-width:2.0;"/><!--MD5=[20f73c479c3e2156e21e62dce1fb6646]
link Loading to Verification--><path d="M261.58,130 C281.5,130 301.42,130 321.34,130 " fill="none" id="Loading-to-Verification" style="stroke:#A80036;stroke-width:2.0;"/><polygon fill="#A80036" points="331.76,130,313.76,122,321.76,130,313.76,138,331.76,130" style="stroke:#A80036;stroke-width:2.0;"/><!--MD5=[95d1c872310084faf1c7b2343ad03994]
link Verification to Preparation--><path d="M540.12,130 C560.22,130 580.34,130 600.44,130 " fill="none" id="Verification-to-Preparation" style="stroke:#A80036;stroke-width:2.0;"/><polygon fill="#A80036" points="610.94,130,592.94,122,600.94,130,592.94,138,610.94,130" style="stroke:#A80036;stroke-width:2.0;"/><!--MD5=[eed0fd921bd43a2770fbf2996ae0b247]
link Preparation to Resolution--><path d="M805.26,130 C825.22,130 845.18,130 865.14,130 " fill="none" id="Preparation-to-Resolution" style="stroke:#A80036;stroke-width:2.0;"/><polygon fill="#A80036" points="875.58,130,857.58,122,865.58,130,857.58,138,875.58,130" style="stroke:#A80036;stroke-width:2.0;"/><!--MD5=[9e873561cbe6ba7d7e17df22fa657499]
link Resolution to Initialization--><path d="M1056.14,130 C1075.92,130 1095.72,130 1115.5,130 " fill="none" id="Resolution-to-Initialization" style="stroke:#A80036;stroke-width:2.0;"/><polygon fill="#A80036" points="1125.84,130,1107.84,122,1115.84,130,1107.84,138,1125.84,130" style="stroke:#A80036;stroke-width:2.0;"/><!--MD5=[5da49cccb4a0ccc26d2b50fd8318c0b9]
@startuml

skinparam state {
  StartColor Green
}

state Loading ##[dotted]green : 加载
state Initialization ##[dotted]green : 初始化

[*] -right-> Loading


state Linking链接 #aliceblue;line:blue;line.dotted;text:blue {
  state Verification #aliceblue;line:blue;line.dotted;text:blue : 验证
  state Preparation #aliceblue;line:blue;line.dotted;text:blue : 准备
  state Resolution #aliceblue;line:blue;line.dotted;text:blue : 解析
  Loading -right-> Verification
  Verification -right-> Preparation
  Preparation -right-> Resolution
}

Resolution -right-> Initialization

@enduml

PlantUML version 1.2021.7(Sun May 23 20:40:07 CST 2021)
(GPL source distribution)
Java Runtime: OpenJDK Runtime Environment
JVM: OpenJDK 64-Bit Server VM
Default Encoding: UTF-8
Language: zh
Country: CN
--></g></svg>